<svg xmlns="http://www.w3.org/2000/svg" width="52.666" height="52.666" viewBox="0 0 52.666 52.666">
  <g id="Grupo_1394" data-name="Grupo 1394" transform="translate(-143.545 -301)">
    <path id="Trazado_292" data-name="Trazado 292" d="M26.333,0A26.333,26.333,0,1,1,0,26.333,26.333,26.333,0,0,1,26.333,0Z" transform="translate(143.545 301)" fill="#fff"/>
    <g id="Grupo_1383" data-name="Grupo 1383" transform="translate(156.515 313)">
      <path id="Trazado_22" data-name="Trazado 22" d="M734.555,646.91h5.539v2.542h.076a6.072,6.072,0,0,1,5.469-3c5.847,0,6.925,3.846,6.925,8.849v10.19h-5.771v-9.033c0-2.156-.042-4.927-3-4.927-3.006,0-3.465,2.347-3.465,4.77v9.189h-5.771Z" transform="translate(-724.687 -637.678)" fill="#3a5575"/>
      <path id="Trazado_23" data-name="Trazado 23" d="M722.936,644.944h5.783v18.578h-5.783Zm2.893-9.232a3.348,3.348,0,1,1-3.353,3.345,3.348,3.348,0,0,1,3.353-3.345" transform="translate(-722.476 -635.712)" fill="#3a5575"/>
    </g>
  </g>
</svg>
