<svg xmlns="http://www.w3.org/2000/svg" width="52.666" height="52.666" viewBox="0 0 52.666 52.666">
  <g id="Grupo_1396" data-name="Grupo 1396" transform="translate(-291.545 -301)">
    <path id="Trazado_294" data-name="Trazado 294" d="M26.333,0A26.333,26.333,0,1,1,0,26.333,26.333,26.333,0,0,1,26.333,0Z" transform="translate(291.545 301)" fill="#fff"/>
    <g id="Grupo_1384" data-name="Grupo 1384" transform="translate(303.544 313)">
      <ellipse id="Elipse_41" data-name="Elipse 41" cx="1.679" cy="1.679" rx="1.679" ry="1.679" transform="translate(20.229 5.747)" fill="#3a5575"/>
      <path id="Trazado_24" data-name="Trazado 24" d="M726.285,412.611a7.055,7.055,0,1,0,7.055,7.055A7.063,7.063,0,0,0,726.285,412.611Zm0,11.574a4.519,4.519,0,1,1,4.519-4.519A4.524,4.524,0,0,1,726.285,424.186Z" transform="translate(-711.842 -405.343)" fill="#3a5575"/>
      <path id="Trazado_25" data-name="Trazado 25" d="M728.221,430.385H716.783a8.615,8.615,0,0,1-8.605-8.605V410.342a8.614,8.614,0,0,1,8.605-8.6h11.438a8.615,8.615,0,0,1,8.605,8.6V421.78A8.615,8.615,0,0,1,728.221,430.385Zm-11.437-25.953a5.916,5.916,0,0,0-5.91,5.91V421.78a5.916,5.916,0,0,0,5.91,5.91h11.438a5.917,5.917,0,0,0,5.91-5.91V410.342a5.916,5.916,0,0,0-5.91-5.91Z" transform="translate(-708.178 -401.737)" fill="#3a5575"/>
    </g>
  </g>
</svg>
