<svg id="Grupo_1407" data-name="Grupo 1407" xmlns="http://www.w3.org/2000/svg" width="88.168" height="87.142" viewBox="0 0 88.168 87.142">
  <g id="Grupo_982" data-name="Grupo 982" transform="translate(32.148 18.134)">
    <g id="Grupo_981" data-name="Grupo 981" transform="translate(0 0)">
      <path id="Trazado_172" data-name="Trazado 172" d="M317.892-217.647a1.5,1.5,0,0,0-1.474-1.475,1.5,1.5,0,0,0-1.474,1.475c0,26.087-22.458,26.993-24.953,26.993h0a1.292,1.292,0,0,0-.91.341c-.227.115-.339.341-.453.453a1.686,1.686,0,0,0,0,1.475,1.576,1.576,0,0,0,1.363.794h.112c2.61,0,24.953.907,24.953,27a1.5,1.5,0,0,0,1.474,1.474A1.5,1.5,0,0,0,318-160.6c0-25.975,22.346-27,24.953-27h0a1.735,1.735,0,0,0,1.363-.794,1.394,1.394,0,0,0-.115-1.475,1.868,1.868,0,0,0-1.248-.795h0C340.35-190.655,317.892-191.561,317.892-217.647Z" transform="translate(-288.457 219.122)" fill="#fff"/>
    </g>
  </g>
  <g id="Grupo_983" data-name="Grupo 983" transform="translate(0 50.828)">
    <g id="Grupo_981-2" data-name="Grupo 981" transform="translate(0 0)">
      <path id="Trazado_172-2" data-name="Trazado 172" d="M306.271-218.23a.909.909,0,0,0-.892-.892.908.908,0,0,0-.892.892c0,15.788-13.592,16.337-15.1,16.337h0a.781.781,0,0,0-.55.207c-.137.069-.205.206-.275.274a1.02,1.02,0,0,0,0,.893.954.954,0,0,0,.825.481h.068c1.58,0,15.1.549,15.1,16.339a.909.909,0,0,0,.892.892.91.91,0,0,0,.892-.892c0-15.72,13.524-16.339,15.1-16.339h0a1.05,1.05,0,0,0,.825-.481.843.843,0,0,0-.069-.893,1.129,1.129,0,0,0-.755-.481h0C319.864-201.893,306.271-202.441,306.271-218.23Z" transform="translate(-288.457 219.122)" fill="#fff"/>
    </g>
  </g>
  <g id="Grupo_984" data-name="Grupo 984" transform="translate(13.284 0)">
    <g id="Grupo_981-3" data-name="Grupo 981" transform="translate(0)">
      <path id="Trazado_172-3" data-name="Trazado 172" d="M304.922-218.3a.84.84,0,0,0-.825-.825.84.84,0,0,0-.825.825c0,14.592-12.562,15.1-13.958,15.1h0a.722.722,0,0,0-.509.191c-.127.065-.19.191-.253.254a.94.94,0,0,0,0,.824.881.881,0,0,0,.762.445h.062c1.46,0,13.958.507,13.958,15.1a.841.841,0,0,0,.825.825.841.841,0,0,0,.825-.825c0-14.53,12.5-15.1,13.958-15.1h0a.971.971,0,0,0,.762-.445.779.779,0,0,0-.064-.824,1.042,1.042,0,0,0-.7-.444h0C317.485-203.2,304.922-203.7,304.922-218.3Z" transform="translate(-288.457 219.122)" fill="#fff"/>
    </g>
  </g>
</svg>
