<svg xmlns="http://www.w3.org/2000/svg" width="101.504" height="88.066" viewBox="0 0 101.504 88.066">
  <g id="Grupo_1404" data-name="Grupo 1404" transform="matrix(0.966, 0.259, -0.259, 0.966, 17.57, 0)">
    <path id="Trazado_171" data-name="Trazado 171" d="M86.892,67.809c.132-.755-7.244-5.8-11.037-8.181.454-5.224-3.009-10.359-2.5-11.909,0,0-.994-.1-1.086,2.619-.462-3.125-3.231-6.888-3.231-6.888s.98,3.291-.143,5.668a18.01,18.01,0,0,0-4.919-8.831c-4.621-3-7-3.655-11.633-6.7-6.826-4.482-11.852-9.381-13.624-13.047a27.673,27.673,0,0,1-.323,10.025c-.271-5.115-2.577-12.385-2.577-12.385-2.261-5.313-9-12.661-12.83-15.286A27.034,27.034,0,0,1,21.8,11.421c.122-2.474.771-9.692-4.08-10.936a22.619,22.619,0,0,0-10.269.3s.773,3.569,1.516,6.9a54.435,54.435,0,0,0-3.43-4.893C1.955,6.756-.206,13.707.015,16.864s4.5,5.473,10.1,6.848C8.3,24.721,4.09,24.943.818,22.174a47.412,47.412,0,0,0,3.3,5.992c4.332,3.047,8.995,2.47,13.026,4.819-2.267-.4-7.455-.611-12.406-.861,4.3.836,5.772,3.265,10.535,7.226s13.093,11.08,17.5,12.844c5.637,2.257,8.293,1.3,15.09.786-2.741,1.388-8.364,3.205-11.835,2.985,5.928,3.538,12.442,7.728,20.824,7.956a61.419,61.419,0,0,0,17.3-2.568C77.94,63.738,86.762,68.568,86.892,67.809ZM83.616,65.6c-6.684-3.674-24.687-11.819-35.863-19.82a136.369,136.369,0,0,1-30.61-30.962C27.838,26.559,35.97,34.34,46.242,42.249,56.2,49.916,79.442,62.286,83.616,65.6Z" transform="translate(0 0)" fill="#fff"/>
  </g>
</svg>
