<svg xmlns="http://www.w3.org/2000/svg" width="44.123" height="91.74" viewBox="0 0 44.123 91.74">
  <g id="Grupo_1183" data-name="Grupo 1183" transform="translate(0 0)">
    <path id="Trazado_163" data-name="Trazado 163" d="M218.138,789.571c-6.3,5.569-.457,18.8,8.392,23,7.464,3.539,18.713,11.32,20.816,21.076-1.193-6.113,6.375-28.016-1.193-37.335-7.585-9.3-21.445-12.562-28.015-6.745Zm0,0" transform="translate(-210.461 -768.306)" fill="#3a5575" fill-rule="evenodd"/>
    <g id="Grupo_975" data-name="Grupo 975">
      <path id="Trazado_164" data-name="Trazado 164" d="M226.252,797.608c4.292,8.022-5.377,13.49-6.94,22.987-1.277,7.831,6.15,17.083,14.878,12.314,5.028-2.729,6.711-8.841,5.2-16.5-1.452-7.511-8.849-16.168-13.141-18.8Zm0,0" transform="translate(-201.791 -742.475)" fill="#3a5575" fill-rule="evenodd"/>
      <path id="Trazado_165" data-name="Trazado 165" d="M226.142,786.4c-.911-4.01-5.569-5.939-8.126-4.938-2.561.979-4.466,4.026-3.926,7.867.545,3.815,6.621,6.464,7.76,10.019,4.013-4.171,5.2-8.933,4.292-12.948Zm0,0" transform="translate(-213.997 -781.203)" fill="#3a5575" fill-rule="evenodd"/>
    </g>
    <path id="Trazado_166" data-name="Trazado 166" d="M227.211,786.728c.228-2.887-2.507-5.148-4.416-5.011a4.972,4.972,0,0,0-4.292,4.449c-.437,2.7,3.1,5.748,3.119,8.356,3.556-1.959,5.361-4.9,5.589-7.794Zm0,0" transform="translate(-203.449 -780.004)" fill="#3a5575" fill-rule="evenodd"/>
    <path id="Trazado_167" data-name="Trazado 167" d="M229.2,787.315c.212-2.578-2.225-4.59-3.926-4.467a4.416,4.416,0,0,0-3.821,3.956c-.386,2.4,2.773,5.1,2.773,7.43,3.169-1.733,4.779-4.362,4.974-6.92Zm0,0" transform="translate(-196.469 -777.332)" fill="#3a5575" fill-rule="evenodd"/>
    <g id="Grupo_976" data-name="Grupo 976" transform="translate(33.408 12.225)">
      <path id="Trazado_168" data-name="Trazado 168" d="M224.365,793.761a7.558,7.558,0,0,0,5.922-4.138,3.628,3.628,0,0,0-1.892-4.678,3.737,3.737,0,0,0-4.151,2.1c-.981,1.8.773,4.852.121,6.712Zm0,0" transform="translate(-223.938 -784.841)" fill="#3a5575" fill-rule="evenodd"/>
      <path id="Trazado_169" data-name="Trazado 169" d="M230.009,787.281a3.335,3.335,0,0,0-3.922,1.277c-1.106,1.435,0,4.345-.807,5.885a6.61,6.61,0,0,0,5.744-2.823,3.194,3.194,0,0,0-1.015-4.339Zm0,0" transform="translate(-220.77 -779.621)" fill="#3a5575" fill-rule="evenodd"/>
    </g>
  </g>
</svg>
