<svg xmlns="http://www.w3.org/2000/svg" width="52.666" height="52.666" viewBox="0 0 52.666 52.666">
  <g id="Grupo_1395" data-name="Grupo 1395" transform="translate(-218.545 -301)">
    <path id="Trazado_293" data-name="Trazado 293" d="M26.333,0A26.333,26.333,0,1,1,0,26.333,26.333,26.333,0,0,1,26.333,0Z" transform="translate(218.545 301)" fill="#fff"/>
    <g id="Grupo_1382" data-name="Grupo 1382" transform="translate(237.838 313)">
      <path id="Trazado_21" data-name="Trazado 21" d="M498.6,646.707v13.85a.361.361,0,0,0,.361.361H504.1a.361.361,0,0,0,.361-.361V646.481h3.729a.36.36,0,0,0,.359-.331l.359-4.241a.361.361,0,0,0-.359-.391h-4.087v-3.009a1.277,1.277,0,0,1,1.277-1.277h2.874a.361.361,0,0,0,.361-.361V632.63a.361.361,0,0,0-.361-.361h-4.856a5.16,5.16,0,0,0-5.159,5.16v4.089h-2.572a.36.36,0,0,0-.36.361v4.241a.361.361,0,0,0,.36.361H498.6Z" transform="translate(-495.666 -632.269)" fill="#3a5575" fill-rule="evenodd"/>
    </g>
  </g>
</svg>
