<svg id="Grupo_1180" data-name="Grupo 1180" xmlns="http://www.w3.org/2000/svg" width="98.457" height="86.631" viewBox="0 0 98.457 86.631">
  <g id="Grupo_965" data-name="Grupo 965">
    <path id="Trazado_154" data-name="Trazado 154" d="M142.336,580.272c-2.133-.308-3.614.718-4.739,2.759-1.885,3.429-3.938,6.774-6.008,10.1-1.707,2.74-4.192,3.534-6.37,2.181-2.235-1.389-2.68-3.837-1.043-6.646,2.673-4.58,5.451-9.1,8.15-13.668a5.442,5.442,0,0,1,4.3-2.835c10.448-1.249,20.871-2.7,31.338-3.738,4.548-.449,8.49-1.564,11.882-4.816,2.759-2.641,5.915-4.876,8.929-7.247,2.552-2.012,5.073-1.964,6.745.047,1.758,2.114,1.278,4.6-1.367,6.765-3.347,2.739-6.885,5.266-10.051,8.2-3.71,3.442-7.9,5.5-12.943,5.353-3.706-.105-5.521,1.592-6.135,5.094a34.8,34.8,0,0,1-1.313,4.2c-.137.448-.439.982.06,1.354a1.109,1.109,0,0,0,1.357-.188c4.631-3.611,8.178-1.439,11.773,1.914,3.274,3.058,6.866,5.775,10.315,8.646,2.584,2.152,3.083,4.672,1.354,6.784-1.662,2.034-4.167,2.082-6.716.022q-5.326-4.309-10.569-8.728a2.409,2.409,0,0,0-3.086-.442c-1.774,1-4.351,1.472-5.226,2.966-1.2,2.053,1.844,3.051,2.788,4.682,4.536,7.839,9.291,15.553,13.967,23.312a10.941,10.941,0,0,1,.578,1.077c1.071,2.323.506,4.609-1.427,5.814a4.248,4.248,0,0,1-5.96-1.529c-2.518-3.91-4.87-7.924-7.282-11.9-1.821-3-3.649-6-5.426-9.024a3.892,3.892,0,0,0-3.309-2.114c-4.628-.4-9.246-.951-13.868-1.453-3.821-.413-5.445-2.746-4.386-6.478,1.739-6.122,3.56-12.222,5.356-18.325C144.4,581.051,144.637,579.862,142.336,580.272Z" transform="translate(-123.192 -547.257)" fill="#3a5575"/>
    <path id="Trazado_155" data-name="Trazado 155" d="M141.153,552.478a9.533,9.533,0,0,1,9.765,9.99,9.766,9.766,0,0,1-9.8,9.794,9.95,9.95,0,0,1-9.974-9.946A9.792,9.792,0,0,1,141.153,552.478Z" transform="translate(-105.878 -552.478)" fill="#3a5575"/>
    <path id="Trazado_156" data-name="Trazado 156" d="M159.709,585.184c-4,0-7.988.013-11.98-.009a16.3,16.3,0,0,1-2.422-.239.86.86,0,0,1-.8-.8.909.909,0,0,1,.69-.9,15.489,15.489,0,0,1,1.866-.566q12.053-2.655,24.116-5.28c3.1-.674,3.318-.5,3.782,2.587.1.642.114,1.3.2,1.942.3,2.276-.623,3.319-2.985,3.274-4.154-.079-8.312-.022-12.467-.022Z" transform="translate(-76.755 -498.897)" fill="#3a5575"/>
    <path id="Trazado_157" data-name="Trazado 157" d="M166.434,577.22c.143,1.036-.575,1.462-1.335,1.806q-9.7,4.391-19.409,8.748c-.642.286-1.475.769-1.974-.071-.512-.868.353-1.329.922-1.725,5.817-4.066,11.631-8.137,17.492-12.136C163.942,572.6,166.263,574.477,166.434,577.22Z" transform="translate(-78.818 -506.782)" fill="#3a5575"/>
  </g>
</svg>
