<svg xmlns="http://www.w3.org/2000/svg" width="46.492" height="81.016" viewBox="0 0 46.492 81.016">
  <g id="Grupo_1406" data-name="Grupo 1406" transform="translate(0.504 0.064)">
    <path id="Sustracción_1" data-name="Sustracción 1" d="M22.734,80.452h-.1A22.761,22.761,0,0,1,0,57.587C.02,52.1,3.844,45.333,8.27,37.5l.02-.03.008-.012C13.984,27.4,21.066,14.875,22.984,0c1.8,14.886,8.773,27.469,14.375,37.58,4.375,7.895,8.152,14.713,8.129,20.217A22.762,22.762,0,0,1,22.734,80.452ZM35.371,42.4a28.865,28.865,0,0,1,2.816,10.9,28.707,28.707,0,0,1-.965,8.959,27.6,27.6,0,0,1-3.652,8.287c5.73-3.811,8.223-8.833,7.395-14.927-.676-5.023-3.4-9.565-5.027-12.278C35.746,43.027,35.543,42.693,35.371,42.4Z" fill="#fff" stroke="rgba(0,0,0,0)" stroke-width="1"/>
  </g>
</svg>
