<svg xmlns="http://www.w3.org/2000/svg" width="40.881" height="76.465" viewBox="0 0 40.881 76.465">
  <path id="Trazado_193" data-name="Trazado 193" d="M741.761,103.5a1.147,1.147,0,0,0,.626-.187,1.319,1.319,0,0,0,.481-1.581L729.4,67.812h12.363a1.189,1.189,0,0,0,1.023-.605,1.339,1.339,0,0,0,.054-1.239L724.8,27.735a1.2,1.2,0,0,0-1.076-.7H704.486a1.191,1.191,0,0,0-1.052.66,1.338,1.338,0,0,0,.037,1.3l14.061,23.532H703.284a1.2,1.2,0,0,0-1.089.737,1.337,1.337,0,0,0,.169,1.36l38.476,48.428a1.176,1.176,0,0,0,.921.452" transform="translate(-702.082 -27.03)" fill="#3a5575"/>
</svg>
