<svg width="33" height="33" viewBox="0 0 33 33" fill="none" xmlns="http://www.w3.org/2000/svg">
<g clip-path="url(#clip0)">
<path d="M32.983 31.6265C32.983 32.0386 32.8456 32.382 32.5709 32.6567C32.2962 32.8627 32.0215 33 31.6094 33H1.39083C1.04747 33 0.704044 32.8627 0.429303 32.6567C0.154562 32.3819 0.0172577 32.0386 0.0172577 31.6265V11.5036H32.983V31.6265Z" fill="#FFD15C"/>
<path d="M32.5709 32.6567C32.2961 32.8628 32.0214 33.0001 31.6093 33.0001H1.39079C1.04743 33.0001 0.704001 32.8627 0.42926 32.6567L16.5 18.8524L32.5709 32.6567Z" fill="#F8B64C"/>
<path d="M32.9834 11.5037L28.3132 14.8689L17.3933 22.6983C16.8439 23.1104 16.0885 23.1104 15.539 22.6983L4.68782 14.8689L0.0176849 11.5037L4.68782 8.13844L14.8523 0.858527L15.6077 0.309111C16.1571 -0.102935 16.9126 -0.102935 17.462 0.309111L18.2175 0.858527L23.0937 4.36114L25.4974 6.07808L28.3132 8.13844L32.9834 11.5037Z" fill="#40596B"/>
<path d="M28.3128 5.11656V14.8689L17.3929 22.6983C16.8435 23.1103 16.088 23.1103 15.5386 22.6983L4.68736 14.8689V2.23204C4.68736 1.47657 5.30546 0.858467 6.06094 0.858467H23.986L28.3128 5.11656Z" fill="#F2F2F2"/>
<path d="M24.0545 4.01772C24.0545 4.63583 24.5352 5.11656 25.1533 5.11656H28.3125L24.0544 0.858467L24.0545 4.01772Z" fill="#CDD6E0"/>
<path d="M20.552 14.6628H21.6508C21.3074 15.4183 20.758 15.9677 20.0025 16.3797C19.1783 16.8605 18.1482 17.0665 16.912 17.0665C15.7445 17.0665 14.7142 16.8605 13.8901 16.4484C13.0659 16.0364 12.3791 15.4869 11.9671 14.6628C11.5551 13.9073 11.349 13.0145 11.349 12.1217C11.349 11.0916 11.5551 10.1987 12.0358 9.30589C12.5165 8.41305 13.1346 7.79495 13.9588 7.3829C14.7829 6.97086 15.7444 6.7648 16.7746 6.7648C17.6674 6.7648 18.4915 6.97086 19.1783 7.31422C19.8651 7.65758 20.4145 8.13837 20.758 8.82516C21.1013 9.44326 21.3074 10.1987 21.3074 10.9542C21.3074 11.847 21.0326 12.6711 20.4832 13.4266C19.7964 14.3881 18.9036 14.8002 17.8048 14.8002C17.53 14.8002 17.2553 14.7315 17.118 14.6628C16.9806 14.5254 16.8432 14.3881 16.8432 14.1821C16.4312 14.5941 15.9504 14.8002 15.401 14.8002C14.7829 14.8002 14.3021 14.5941 13.9587 14.1821C13.5467 13.77 13.3406 13.2206 13.3406 12.5338C13.3406 11.7096 13.5467 10.9541 14.0274 10.1987C14.5768 9.37451 15.3323 8.96247 16.2251 8.96247C16.8432 8.96247 17.324 9.23721 17.6674 9.71794L17.8048 9.09984H19.247L18.4229 12.9458C18.3542 13.2206 18.3542 13.3579 18.3542 13.4265C18.3542 13.4952 18.3542 13.5639 18.4229 13.6326C18.4915 13.7013 18.4915 13.7013 18.5602 13.7013C18.6976 13.7013 18.9723 13.5639 19.247 13.3579C19.5904 13.0832 19.9338 12.7398 20.1399 12.2591C20.3459 11.7784 20.4832 11.2976 20.4832 10.8168C20.4832 9.92399 20.1399 9.16852 19.5217 8.61911C18.9036 8.001 18.0107 7.72626 16.8432 7.72626C15.8817 7.72626 15.0576 7.93232 14.3708 8.34436C13.684 8.75641 13.2033 9.30589 12.8599 9.99268C12.5165 10.6795 12.3791 11.4349 12.3791 12.2591C12.3791 13.0146 12.5852 13.7014 12.9286 14.3195C13.3406 14.9376 13.8214 15.4183 14.5082 15.693C15.195 15.9678 15.9504 16.1051 16.8433 16.1051C17.6674 16.1051 18.4229 15.9677 19.041 15.7617C19.6591 15.4869 20.1399 15.1435 20.552 14.6628ZM14.7142 12.4651C14.7142 12.9458 14.7829 13.2206 14.989 13.4952C15.195 13.7013 15.401 13.8386 15.6758 13.8386C15.8818 13.8386 16.0878 13.7699 16.2252 13.7012C16.3626 13.6325 16.4999 13.4952 16.6372 13.3579C16.8433 13.1518 16.9807 12.8084 17.118 12.3963C17.2553 11.9843 17.324 11.5722 17.324 11.2288C17.324 10.8168 17.2553 10.542 17.0493 10.2673C16.8432 10.0612 16.6372 9.92393 16.3625 9.92393C16.0878 9.92393 15.7444 10.0613 15.5383 10.2673C15.2636 10.4733 15.0576 10.8167 14.9202 11.2974C14.7829 11.7096 14.7142 12.1217 14.7142 12.4651Z" fill="#FF7058"/>
</g>
<defs>
<clipPath id="clip0">
<rect width="33" height="33" fill="white"/>
</clipPath>
</defs>
</svg>
