<svg width="40" height="40" viewBox="0 0 40 40" fill="none" xmlns="http://www.w3.org/2000/svg">
<circle cx="20" cy="20" r="20" fill="#F1ECEF"/>
<path d="M26.0723 14C26.0723 17.2309 23.4532 19.85 20.2223 19.85C16.9914 19.85 14.3723 17.2309 14.3723 14C14.3723 10.7691 16.9914 8.15 20.2223 8.15C23.4532 8.15 26.0723 10.7691 26.0723 14Z" fill="#314491"/>
<path d="M26.0723 14C26.0723 17.2309 23.4532 19.85 20.2223 19.85C16.9914 19.85 14.3723 17.2309 14.3723 14C14.3723 10.7691 16.9914 8.15 20.2223 8.15C23.4532 8.15 26.0723 10.7691 26.0723 14Z" fill="url(#paint0_radial)" fill-opacity="0.85"/>
<path d="M26.0723 14C26.0723 17.2309 23.4532 19.85 20.2223 19.85C16.9914 19.85 14.3723 17.2309 14.3723 14C14.3723 10.7691 16.9914 8.15 20.2223 8.15C23.4532 8.15 26.0723 10.7691 26.0723 14Z" stroke="#5564A9" stroke-width="0.3"/>
<mask id="path-3-inside-1" fill="white">
<path fill-rule="evenodd" clip-rule="evenodd" d="M12.5556 17.6666H6.33337V23C6.33337 27.4182 9.91509 31 14.3334 31H19.404V25.3894H14.5556C13.451 25.3894 12.5556 24.494 12.5556 23.3894V17.6666ZM28.5556 17.6666V23.3894C28.5556 24.494 27.6602 25.3894 26.5556 25.3894H21.404V31H26.7778C31.1961 31 34.7778 27.4182 34.7778 23V17.6666H28.5556Z"/>
</mask>
<path fill-rule="evenodd" clip-rule="evenodd" d="M12.5556 17.6666H6.33337V23C6.33337 27.4182 9.91509 31 14.3334 31H19.404V25.3894H14.5556C13.451 25.3894 12.5556 24.494 12.5556 23.3894V17.6666ZM28.5556 17.6666V23.3894C28.5556 24.494 27.6602 25.3894 26.5556 25.3894H21.404V31H26.7778C31.1961 31 34.7778 27.4182 34.7778 23V17.6666H28.5556Z" fill="#176A62"/>
<path fill-rule="evenodd" clip-rule="evenodd" d="M12.5556 17.6666H6.33337V23C6.33337 27.4182 9.91509 31 14.3334 31H19.404V25.3894H14.5556C13.451 25.3894 12.5556 24.494 12.5556 23.3894V17.6666ZM28.5556 17.6666V23.3894C28.5556 24.494 27.6602 25.3894 26.5556 25.3894H21.404V31H26.7778C31.1961 31 34.7778 27.4182 34.7778 23V17.6666H28.5556Z" fill="url(#paint1_linear)"/>
<path d="M6.33337 17.6666V17.5666H6.23337V17.6666H6.33337ZM12.5556 17.6666H12.6556V17.5666H12.5556V17.6666ZM19.404 31V31.1H19.504V31H19.404ZM19.404 25.3894H19.504V25.2894H19.404V25.3894ZM28.5556 17.6666V17.5666H28.4556V17.6666H28.5556ZM21.404 25.3894V25.2894H21.304V25.3894H21.404ZM21.404 31H21.304V31.1H21.404V31ZM34.7778 17.6666H34.8778V17.5666H34.7778V17.6666ZM6.33337 17.7666H12.5556V17.5666H6.33337V17.7666ZM6.43337 23V17.6666H6.23337V23H6.43337ZM14.3334 30.9C9.97032 30.9 6.43337 27.363 6.43337 23H6.23337C6.23337 27.4735 9.85986 31.1 14.3334 31.1V30.9ZM19.404 30.9H14.3334V31.1H19.404V30.9ZM19.504 31V25.3894H19.304V31H19.504ZM19.404 25.2894H14.5556V25.4894H19.404V25.2894ZM14.5556 25.2894C13.5063 25.2894 12.6556 24.4387 12.6556 23.3894H12.4556C12.4556 24.5492 13.3958 25.4894 14.5556 25.4894V25.2894ZM12.6556 23.3894V17.6666H12.4556V23.3894H12.6556ZM28.4556 17.6666V23.3894H28.6556V17.6666H28.4556ZM28.4556 23.3894C28.4556 24.4387 27.6049 25.2894 26.5556 25.2894V25.4894C27.7154 25.4894 28.6556 24.5492 28.6556 23.3894H28.4556ZM26.5556 25.2894H21.404V25.4894H26.5556V25.2894ZM21.304 25.3894V31H21.504V25.3894H21.304ZM26.7778 30.9H21.404V31.1H26.7778V30.9ZM34.6778 23C34.6778 27.363 31.1409 30.9 26.7778 30.9V31.1C31.2513 31.1 34.8778 27.4735 34.8778 23H34.6778ZM34.6778 17.6666V23H34.8778V17.6666H34.6778ZM28.5556 17.7666H34.7778V17.5666H28.5556V17.7666Z" fill="#519A8F" mask="url(#path-3-inside-1)"/>
<defs>
<radialGradient id="paint0_radial" cx="0" cy="0" r="1" gradientUnits="userSpaceOnUse" gradientTransform="translate(22.2393 12.1019) rotate(134.64) scale(7.68663 7.78309)">
<stop stop-color="white"/>
<stop offset="0.78125" stop-color="white" stop-opacity="0"/>
<stop offset="0.989583" stop-color="white" stop-opacity="0"/>
</radialGradient>
<linearGradient id="paint1_linear" x1="20.5556" y1="17.6666" x2="20.5556" y2="31" gradientUnits="userSpaceOnUse">
<stop stop-color="#F5FAF3"/>
<stop offset="1" stop-color="white" stop-opacity="0"/>
</linearGradient>
</defs>
</svg>
