<svg width="169" height="55" viewBox="0 0 169 55" fill="none" xmlns="http://www.w3.org/2000/svg">
<path d="M157.194 10.8979H131.111C130.596 10.8979 130.409 11.5861 130.855 11.8432C134.224 13.7846 141.809 18.2625 144.851 20.933C147.504 23.2621 149.036 24.9497 149.759 25.8116C150.002 26.1009 150.48 26.0538 150.648 25.7156L157.642 11.6202C157.807 11.2878 157.565 10.8979 157.194 10.8979Z" fill="#F3D42B"/>
<path d="M13.5746 38.9143C12.7515 38.9143 12.3221 39.3192 12.2505 40.1658L12 42.6687H19.0142C25.9568 42.6687 28.8197 41.3068 29.5712 34.5341C29.9649 30.0803 29.2491 28.9024 26.4936 28.3135L17.5827 26.3259L17.7616 24.5223C18.1553 20.8046 18.5489 20.1421 23.3801 20.1421H28.8913C29.7144 20.1421 30.1438 19.7004 30.2512 18.8538L30.5017 16.3876H23.7738C16.9386 16.3876 14.5051 17.7127 13.8251 24.5223C13.3599 28.9761 14.6482 29.6754 17.7616 30.338L25.8852 32.0679L25.6347 34.5341C25.241 38.2885 24.8116 38.9143 19.372 38.9143H13.5746Z" fill="#085CB9"/>
<path d="M41.7549 26.3995C45.7272 26.3995 45.9061 26.9884 45.3335 32.9882C44.761 38.9143 44.2957 39.54 40.395 39.54C36.3869 39.54 36.2437 38.9143 36.8163 32.9882C37.3889 26.9884 37.8184 26.3995 41.7549 26.3995ZM40.0729 42.9632C46.4787 42.9632 48.1249 41.086 48.9838 32.9882C49.8427 24.8535 48.4828 22.9763 42.1127 22.9763C35.6712 22.9763 34.025 24.8535 33.1661 32.9882C32.3072 41.086 33.6671 42.9632 40.0729 42.9632Z" fill="#085CB9"/>
<path d="M64.8761 42.6687L65.0908 40.497C65.1624 39.6504 64.8045 39.2456 63.9814 39.2456H61.8342C56.0368 39.2456 55.5 38.9143 56.0726 32.9882C56.6452 27.0252 57.3967 26.7308 63.1226 26.7308H65.2697C66.0928 26.7308 66.5223 26.3259 66.6296 25.4793L66.8444 23.2708H63.4804C55.2853 23.2708 53.2812 24.8535 52.4224 32.9882C51.5635 41.1228 53.317 42.6687 61.5122 42.6687H64.8761Z" fill="#085CB9"/>
<path d="M77.4017 26.3995C81.374 26.3995 81.5529 26.9884 80.9803 32.9882C80.4078 38.9143 79.9425 39.54 76.0418 39.54C72.0337 39.54 71.8905 38.9143 72.4631 32.9882C73.0357 26.9884 73.4652 26.3995 77.4017 26.3995ZM75.7197 42.9632C82.1255 42.9632 83.7717 41.086 84.6306 32.9882C85.4894 24.8535 84.1296 22.9763 77.7596 22.9763C71.318 22.9763 69.6718 24.8535 68.8129 32.9882C67.954 41.086 69.3139 42.9632 75.7197 42.9632Z" fill="#085CB9"/>
<path d="M94.6539 23.2708C95.0475 19.4427 95.0476 19.2219 98.0536 19.2219C98.9125 19.2219 99.3777 18.7802 99.4493 17.9336L99.664 15.7619H97.1947C92.6498 15.7619 91.5762 17.6759 91.0037 23.2708H89.8227C88.9996 23.2708 88.5702 23.6757 88.4628 24.5223L88.2481 26.7308H90.6458L89.0354 42.6687H91.4331C92.2562 42.6687 92.7214 42.2638 92.793 41.4172L94.296 26.7308H97.3021C98.1252 26.7308 98.5904 26.2891 98.6978 25.4425L98.9125 23.2708H94.6539Z" fill="#085CB9"/>
<path d="M104.126 32.9513C104.806 26.6571 105.378 26.105 111.57 26.5835L113.287 26.7308L112.607 33.2826C112.142 37.9941 111.856 39.54 108.027 39.54C104.233 39.54 103.446 39.2456 104.126 32.9513ZM112.178 23.1972C103.16 22.4978 101.048 24.7799 100.189 32.9513C99.3305 41.086 101.048 43 106.488 43C109.53 43 110.353 42.3743 110.961 41.3436L111.963 39.6136L112.106 41.4172C112.214 42.3006 112.428 42.6687 113.287 42.6687H115.721L117.438 24.8167C117.546 23.9333 117.224 23.6757 116.365 23.5652L112.178 23.1972Z" fill="#085CB9"/>
<path d="M125.118 24.5223C125.082 23.6389 124.903 23.2708 124.044 23.2708H121.897L120.036 41.4172C119.965 42.2638 120.323 42.6687 121.146 42.6687H123.901L125.011 31.6631C125.404 27.9822 126.371 26.7308 129.162 26.7308H131.595C132.419 26.7308 132.848 26.3259 132.955 25.4793L133.17 23.2708H129.806C127.552 23.2708 126.8 23.7125 126.227 24.7063L125.225 26.4363L125.118 24.5223Z" fill="#085CB9"/>
<path d="M148.904 27.371C147.54 25.3015 145.893 23.5324 143.963 21.5209C143.651 21.1961 143.102 21.4172 143.102 21.8674V37.0579C143.102 37.5816 143.805 37.7529 144.046 37.288L148.928 27.8699C149.011 27.7112 149.002 27.5203 148.904 27.371Z" fill="#085CB9"/>
</svg>
