<svg width="138" height="45" viewBox="0 0 138 45" fill="none" xmlns="http://www.w3.org/2000/svg">
<path d="M11 32C10.3275 32 10.0585 32.3162 10 33V35H16C21.6723 35 23.386 33.4703 24 28C24.3216 24.4027 24.2514 23.4757 22 23L15 22V20C15.3216 16.9973 15.0528 17 19 17H24C24.6725 17 24.9123 15.6838 25 15V14H20C14.4154 14 11.5555 14.5 11 20C10.6199 23.5973 12.4562 24.4649 15 25L21 26V28C20.6784 31.0324 20.4443 32 16 32H11Z" fill="white"/>
<path d="M34 22C37.2455 22 37.4678 22.1541 37 27C36.5322 31.7865 36.187 32 33 32C29.7252 32 29.5322 31.7865 30 27C30.4678 22.1541 30.7837 22 34 22ZM33 35C38.2338 35 39.2983 33.5405 40 27C40.7017 20.4297 40.2045 19 35 19C29.737 19 27.7017 20.4297 27 27C26.2983 33.5405 27.7662 35 33 35Z" fill="white"/>
<path d="M53 35V33C53.0585 32.3162 52.6725 32 52 32H51C46.2633 32 45.5322 31.7865 46 27C46.4678 22.1838 47.3218 22 52 22H54C54.6725 22 54.9123 21.6838 55 21V19H52C45.3043 19 43.7017 20.4297 43 27C42.2983 33.5703 43.3043 35 50 35H53Z" fill="white"/>
<path d="M63 22C66.2455 22 66.4678 22.1541 66 27C65.5322 31.7865 65.187 32 62 32C58.7253 32 58.5322 31.7865 59 27C59.4678 22.1541 59.7837 22 63 22ZM62 35C67.2338 35 68.2983 33.5405 69 27C69.7017 20.4297 69.2045 19 64 19C58.737 19 56.7017 20.4297 56 27C55.2983 33.5405 56.7662 35 62 35Z" fill="white"/>
<path d="M78 19C78.3216 15.9081 77.5439 16 80 16C80.7017 16 80.9415 15.6838 81 15L82 13H80C76.2867 13 75.4678 14.4811 75 19H74C73.3275 19 72.0877 19.3162 72 20V22H74L73 35H75C75.6725 35 75.9415 34.6838 76 34L77 22H80C80.6725 22 80.9123 21.6838 81 21V19H78Z" fill="white"/>
<path d="M85 27C85.5555 21.9162 85.9417 21.6135 91 22H93L92 27C91.6199 30.8054 91.1286 32 88 32C84.9007 32 84.4445 32.0838 85 27ZM92 19C84.6318 18.4351 82.7017 20.4 82 27C81.2983 33.5703 82.5557 35 87 35C89.4853 35 90.5029 34.8324 91 34L92 32V34C92.0877 34.7135 92.2983 35 93 35H95L96 20C96.0877 19.2865 95.7017 19.0892 95 19H92Z" fill="white"/>
<path d="M102 20C101.971 19.2865 102.702 19 102 19H100L98 34C97.9415 34.6838 98.3275 35 99 35H101L102 26C102.322 23.027 103.719 22 106 22H108C108.672 22 108.912 21.6838 109 21V19H106C104.158 19 103.468 19.1973 103 20V22L102 20Z" fill="white"/>
<path d="M128.195 9H106.91C106.396 9 106.209 9.68971 106.655 9.94779C109.58 11.6435 115.588 15.2209 118.043 17.3816C120.149 19.2347 121.407 20.6016 122.043 21.3493C122.288 21.6374 122.768 21.5897 122.936 21.2509L128.643 9.72181C128.807 9.38948 128.565 9 128.195 9Z" fill="#F3D42B"/>
<path d="M121.833 22.423C120.727 20.8113 119.401 19.4213 117.855 17.8602C117.541 17.5432 117 17.7661 117 18.2123V30.0086C117 30.5286 117.695 30.7031 117.941 30.2448L121.859 22.9341C121.946 22.7719 121.937 22.5747 121.833 22.423Z" fill="white"/>
</svg>
