<svg width="267" height="153" viewBox="0 0 267 153" fill="none" xmlns="http://www.w3.org/2000/svg">
<rect x="1.01172" y="1" width="260.977" height="152" rx="12" fill="#085CB9"/>
<mask id="mask0" mask-type="alpha" maskUnits="userSpaceOnUse" x="1" y="1" width="261" height="152">
<rect x="1.01172" y="1" width="260.977" height="152" rx="12" fill="#085CB9"/>
</mask>
<g mask="url(#mask0)">
<path d="M175.255 41.4161H120.124C119.354 41.4161 119.069 42.2959 119.733 42.6308C126.038 45.8101 142.891 54.4798 149.452 59.5474C155.277 64.047 158.471 67.2212 159.817 68.664C160.176 69.049 160.905 68.9901 161.155 68.546L175.932 42.3438C176.174 41.9148 175.81 41.4161 175.255 41.4161Z" fill="url(#paint0_linear)" fill-opacity="0.15"/>
<path d="M157.279 69.4187C154.261 65.983 150.585 63.0738 146.249 59.6996C145.766 59.3236 144.992 59.6181 144.992 60.1783V85.5783C144.992 86.2346 145.999 86.4727 146.39 85.9088L157.322 70.1307C157.477 69.9075 157.461 69.626 157.279 69.4187Z" fill="url(#paint1_linear)" fill-opacity="0.15"/>
<path d="M210.214 98.526H253.081C253.682 98.526 254.076 99.0775 253.814 99.5518L242.326 120.347C242.055 120.838 241.264 120.906 240.869 120.484C239.682 119.214 237.171 116.73 232.824 113.302C227.81 109.349 215.269 102.706 209.79 99.8726C209.072 99.501 209.38 98.526 210.214 98.526Z" fill="url(#paint2_linear)" fill-opacity="0.15"/>
<path d="M230.625 113.711C233.89 116.308 236.678 118.587 238.986 121.248C239.185 121.476 239.201 121.787 239.034 122.034L230.777 134.199C230.354 134.823 229.264 134.559 229.264 133.834V114.24C229.264 113.62 230.102 113.295 230.625 113.711Z" fill="url(#paint3_linear)" fill-opacity="0.15"/>
<path d="M262.606 -12.1792H135.602C131.454 -12.1792 129.93 -7.35364 133.498 -5.51506C152.436 4.24444 186.742 22.4821 201.191 33.7209C213.151 43.0243 220.699 50.0897 224.907 54.3567C226.915 56.3925 230.866 56.0483 232.216 53.6376L266.245 -7.12748C267.552 -9.4618 265.595 -12.1792 262.606 -12.1792Z" fill="url(#paint4_linear)" fill-opacity="0.15"/>
<path d="M221.927 58.0662C215.183 50.4015 207.195 43.6871 197.964 36.2814C195.377 34.2061 191.186 35.808 191.186 38.8666V94.7694C191.186 98.3506 196.631 99.6376 198.72 96.5501L222.168 61.8961C222.984 60.6909 222.904 59.1769 221.927 58.0662Z" fill="url(#paint5_linear)" fill-opacity="0.15"/>
<path d="M127.823 -13.0579H-50.8743C-56.7112 -13.0579 -58.8555 -6.2646 -53.8357 -3.67632C-27.1896 10.0628 21.0806 35.7371 41.4103 51.5588C58.2389 64.6557 68.8581 74.6021 74.7794 80.609C77.6046 83.475 83.1641 82.9904 85.0636 79.5967L132.943 -5.94623C134.782 -9.23241 132.028 -13.0579 127.823 -13.0579Z" fill="url(#paint6_linear)" fill-opacity="0.15"/>
<path d="M70.5863 85.8312C61.0969 75.0411 49.8581 65.5888 36.8701 55.1633C33.2304 52.2417 27.3324 54.4968 27.3324 58.8027V137.501C27.3324 142.542 34.9941 144.354 37.9336 140.007L70.9254 91.2228C72.0728 89.5262 71.9614 87.3948 70.5863 85.8312Z" fill="url(#paint7_linear)" fill-opacity="0.15"/>
</g>
<path d="M30.7702 90.1855C32.1202 90.1855 33.1652 90.5205 33.9052 91.1905C34.6452 91.8505 35.0152 92.7555 35.0152 93.9055C35.0152 94.5655 34.8852 95.1855 34.6252 95.7655C34.3752 96.3355 33.9602 96.8055 33.3802 97.1755C32.8102 97.5455 32.0702 97.7305 31.1602 97.7305H29.6002V101.225H27.4252V90.1855H30.7702ZM31.1452 95.6155C31.5552 95.6155 31.8852 95.5255 32.1352 95.3455C32.3852 95.1555 32.5652 94.9355 32.6752 94.6855C32.7852 94.4355 32.8402 94.1955 32.8402 93.9655C32.8402 93.5755 32.7252 93.2005 32.4952 92.8405C32.2652 92.4705 31.8202 92.2855 31.1602 92.2855H29.6002V95.6155H31.1452ZM44.7914 90.1855V92.2855H39.4364V94.6405H44.1764V96.7405H39.4364V99.1255H45.0014V101.225H37.2614V90.1855H44.7914ZM53.5066 101.225L51.1816 97.7155H49.7266V101.225H47.5516V90.1855H50.8966C52.2666 90.1855 53.3266 90.5205 54.0766 91.1905C54.8366 91.8505 55.2166 92.7555 55.2166 93.9055C55.2166 94.5855 55.0716 95.2255 54.7816 95.8255C54.5016 96.4155 54.0666 96.8805 53.4766 97.2205L56.0416 101.225H53.5066ZM49.7266 95.6155H51.2716C51.8616 95.6155 52.2916 95.4455 52.5616 95.1055C52.8316 94.7555 52.9666 94.3805 52.9666 93.9805C52.9666 93.5805 52.8516 93.2005 52.6216 92.8405C52.3916 92.4705 51.9466 92.2855 51.2866 92.2855H49.7266V95.6155ZM65.0348 90.1855V92.2855H60.3098V94.7905H64.4048V96.8905H60.3098V101.225H58.1348V90.1855H65.0348ZM69.604 90.1855V101.225H67.429V90.1855H69.604ZM74.9284 90.1855V99.1255H80.1184V101.225H72.7534V90.1855H74.9284ZM87.8407 90.1855H91.1407C92.5507 90.1855 93.7107 90.4605 94.6207 91.0105C95.5307 91.5505 96.1907 92.2555 96.6007 93.1255C97.0207 93.9855 97.2307 94.9105 97.2307 95.9005C97.2307 96.9605 96.9807 97.8955 96.4807 98.7055C95.9807 99.5155 95.3057 100.14 94.4557 100.58C93.6157 101.01 92.6907 101.225 91.6807 101.225H87.8407V90.1855ZM91.3057 99.1255C92.4357 99.1255 93.3307 98.8355 93.9907 98.2555C94.6507 97.6755 94.9807 96.8405 94.9807 95.7505C94.9807 94.8705 94.7957 94.1705 94.4257 93.6505C94.0657 93.1305 93.6407 92.7705 93.1507 92.5705C92.6707 92.3705 92.2157 92.2705 91.7857 92.2705H90.0157V99.1255H91.3057ZM106.943 90.1855V92.2855H101.588V94.6405H106.328V96.7405H101.588V99.1255H107.153V101.225H99.4129V90.1855H106.943ZM42.1752 129.7C41.7086 130.084 40.9669 130.467 39.9502 130.85C38.9336 131.234 37.8252 131.425 36.6252 131.425C34.7086 131.425 33.0419 131.009 31.6252 130.175C30.2086 129.342 29.1252 128.225 28.3752 126.825C27.6252 125.409 27.2502 123.859 27.2502 122.175C27.2502 120.325 27.6252 118.675 28.3752 117.225C29.1252 115.775 30.1752 114.65 31.5252 113.85C32.8752 113.034 34.4336 112.625 36.2002 112.625C37.3169 112.625 38.3502 112.775 39.3002 113.075C40.2502 113.375 41.0836 113.75 41.8002 114.2L40.3752 117.625C39.0586 116.625 37.7086 116.125 36.3252 116.125C35.3919 116.125 34.5169 116.384 33.7002 116.9C32.8836 117.417 32.2336 118.125 31.7502 119.025C31.2669 119.909 31.0252 120.892 31.0252 121.975C31.0252 123.159 31.2502 124.2 31.7002 125.1C32.1502 125.984 32.7919 126.675 33.6252 127.175C34.4586 127.675 35.4336 127.925 36.5502 127.925C37.4502 127.925 38.2586 127.784 38.9752 127.5C39.6919 127.2 40.2586 126.85 40.6752 126.45L42.1752 129.7ZM49.4319 112.825V127.725H58.0819V131.225H45.8069V112.825H49.4319ZM65.9475 112.825V131.225H62.3225V112.825H65.9475ZM83.7465 112.825V116.325H74.8215V120.25H82.7215V123.75H74.8215V127.725H84.0965V131.225H71.1965V112.825H83.7465ZM104.922 112.825V131.975H104.822L91.9469 120.35L92.0219 131.225H88.3469V112.1H88.4969L101.347 123.9L101.272 112.825H104.922ZM121.31 112.825V116.325H116.835V131.225H113.21V116.325H108.91V112.825H121.31ZM137.859 112.825V116.325H128.934V120.25H136.834V123.75H128.934V127.725H138.209V131.225H125.309V112.825H137.859Z" fill="white"/>
<defs>
<linearGradient id="paint0_linear" x1="147.685" y1="41.4161" x2="147.685" y2="86.2254" gradientUnits="userSpaceOnUse">
<stop stop-color="white"/>
<stop offset="1" stop-color="white" stop-opacity="0"/>
</linearGradient>
<linearGradient id="paint1_linear" x1="147.685" y1="41.4161" x2="147.685" y2="86.2254" gradientUnits="userSpaceOnUse">
<stop stop-color="white"/>
<stop offset="1" stop-color="white" stop-opacity="0"/>
</linearGradient>
<linearGradient id="paint2_linear" x1="231.643" y1="98.526" x2="231.643" y2="134.549" gradientUnits="userSpaceOnUse">
<stop stop-color="white"/>
<stop offset="1" stop-color="white" stop-opacity="0"/>
</linearGradient>
<linearGradient id="paint3_linear" x1="231.643" y1="98.526" x2="231.643" y2="134.549" gradientUnits="userSpaceOnUse">
<stop stop-color="white"/>
<stop offset="1" stop-color="white" stop-opacity="0"/>
</linearGradient>
<linearGradient id="paint4_linear" x1="199.079" y1="-12.1792" x2="199.079" y2="98.2898" gradientUnits="userSpaceOnUse">
<stop stop-color="white"/>
<stop offset="1" stop-color="white" stop-opacity="0"/>
</linearGradient>
<linearGradient id="paint5_linear" x1="199.079" y1="-12.1792" x2="199.079" y2="98.2898" gradientUnits="userSpaceOnUse">
<stop stop-color="white"/>
<stop offset="1" stop-color="white" stop-opacity="0"/>
</linearGradient>
<linearGradient id="paint6_linear" x1="38.4386" y1="-13.0579" x2="38.4386" y2="142.457" gradientUnits="userSpaceOnUse">
<stop stop-color="white"/>
<stop offset="1" stop-color="white" stop-opacity="0"/>
</linearGradient>
<linearGradient id="paint7_linear" x1="38.4386" y1="-13.0579" x2="38.4386" y2="142.457" gradientUnits="userSpaceOnUse">
<stop stop-color="white"/>
<stop offset="1" stop-color="white" stop-opacity="0"/>
</linearGradient>
</defs>
</svg>
